<?xml version="1.0" encoding="UTF-8" standalone="no"?>
<svg
   xlink="http://www.w3.org/1999/xlink"
   width="434px"
   height="83px"
   viewBox="0 -2543.8 22515.9 4309.5"
   role="img"
   focusable="false"
   style="vertical-align: -4.101ex;"
   aria-hidden="true"
   version="1.1"
   id="svg232"
   sodipodi:docname="convolution.svg"
   inkscape:export-filename="convolution.png"
   inkscape:export-xdpi="442.3963"
   inkscape:export-ydpi="442.3963"
   inkscape:version="1.2.1 (9c6d41e, 2022-07-14)"
   xmlns:inkscape="http://www.inkscape.org/namespaces/inkscape"
   xmlns:sodipodi="http://sodipodi.sourceforge.net/DTD/sodipodi-0.dtd"
   xmlns="http://www.w3.org/2000/svg"
   xmlns:svg="http://www.w3.org/2000/svg">
  <defs
     id="defs236" />
  <sodipodi:namedview
     id="namedview234"
     pagecolor="#ffffff"
     bordercolor="#000000"
     borderopacity="0.25"
     inkscape:showpageshadow="2"
     inkscape:pageopacity="0.0"
     inkscape:pagecheckerboard="0"
     inkscape:deskcolor="#d1d1d1"
     showgrid="false"
     inkscape:zoom="2.8271889"
     inkscape:cx="211.69438"
     inkscape:cy="43.329258"
     inkscape:window-width="1983"
     inkscape:window-height="847"
     inkscape:window-x="359"
     inkscape:window-y="219"
     inkscape:window-maximized="0"
     inkscape:current-layer="g230" />
  <g
     stroke="currentColor"
     fill="currentColor"
     stroke-width="0"
     transform="matrix(1 0 0 -1 0 0)"
     id="g230">
    <path
       stroke-width="10"
       transform="scale(1.73)"
       d="M94 250Q94 319 104 381T127 488T164 576T202 643T244 695T277 729T302 750H315H319Q333 750 333 741Q333 738 316 720T275 667T226 581T184 443T167 250T184 58T225 -81T274 -167T316 -220T333 -241Q333 -250 318 -250H315H302L274 -226Q180 -141 137 -14T94 250Z"
       id="path132"
       style="fill:#ffffff;stroke:#ffffff;stroke-opacity:1" />
    <g
       transform="translate(681,0)"
       id="g136"
       style="fill:#ffffff;stroke:#ffffff;stroke-opacity:1">
      <path
         stroke-width="10"
         transform="scale(1.73)"
         d="M118 -162Q120 -162 124 -164T135 -167T147 -168Q160 -168 171 -155T187 -126Q197 -99 221 27T267 267T289 382V385H242Q195 385 192 387Q188 390 188 397L195 425Q197 430 203 430T250 431Q298 431 298 432Q298 434 307 482T319 540Q356 705 465 705Q502 703 526 683T550 630Q550 594 529 578T487 561Q443 561 443 603Q443 622 454 636T478 657L487 662Q471 668 457 668Q445 668 434 658T419 630Q412 601 403 552T387 469T380 433Q380 431 435 431Q480 431 487 430T498 424Q499 420 496 407T491 391Q489 386 482 386T428 385H372L349 263Q301 15 282 -47Q255 -132 212 -173Q175 -205 139 -205Q107 -205 81 -186T55 -132Q55 -95 76 -78T118 -61Q162 -61 162 -103Q162 -122 151 -136T127 -157L118 -162Z"
         id="path134"
         style="fill:#ffffff;stroke:#ffffff;stroke-opacity:1" />
    </g>
    <g
       transform="translate(1641,0)"
       id="g140"
       style="fill:#ffffff;stroke:#ffffff;stroke-opacity:1">
      <path
         stroke-width="10"
         transform="scale(1.73)"
         d="M215 721Q216 732 225 741T248 750Q263 750 273 742T284 721L270 571L327 613Q383 654 388 657T399 660Q412 660 423 650T435 624T424 600T376 575Q363 569 355 566L289 534L355 504L424 470Q435 462 435 447Q435 431 424 420T399 409Q393 409 388 412T327 456L270 498L277 423L284 348Q280 320 250 320T215 348L229 498L172 456Q116 415 111 412T100 409Q87 409 76 420T64 447Q64 461 75 470L144 504L210 534L144 566Q136 570 122 576Q83 593 74 600T64 624Q64 639 75 649T100 660Q106 660 111 657T172 613L229 571Q229 578 222 643T215 721Z"
         id="path138"
         style="fill:#ffffff;stroke:#ffffff;stroke-opacity:1" />
    </g>
    <g
       transform="translate(2515,0)"
       id="g144"
       style="fill:#ffffff;stroke:#ffffff;stroke-opacity:1">
      <path
         stroke-width="10"
         transform="scale(1.73)"
         d="M311 43Q296 30 267 15T206 0Q143 0 105 45T66 160Q66 265 143 353T314 442Q361 442 401 394L404 398Q406 401 409 404T418 412T431 419T447 422Q461 422 470 413T480 394Q480 379 423 152T363 -80Q345 -134 286 -169T151 -205Q10 -205 10 -137Q10 -111 28 -91T74 -71Q89 -71 102 -80T116 -111Q116 -121 114 -130T107 -144T99 -154T92 -162L90 -164H91Q101 -167 151 -167Q189 -167 211 -155Q234 -144 254 -122T282 -75Q288 -56 298 -13Q311 35 311 43ZM384 328L380 339Q377 350 375 354T369 368T359 382T346 393T328 402T306 405Q262 405 221 352Q191 313 171 233T151 117Q151 38 213 38Q269 38 323 108L331 118L384 328Z"
         id="path142"
         style="fill:#ffffff;stroke:#ffffff;stroke-opacity:1" />
    </g>
    <g
       transform="translate(3354,0)"
       id="g148"
       style="fill:#ffffff;stroke:#ffffff;stroke-opacity:1">
      <path
         stroke-width="10"
         transform="scale(1.73)"
         d="M60 749L64 750Q69 750 74 750H86L114 726Q208 641 251 514T294 250Q294 182 284 119T261 12T224 -76T186 -143T145 -194T113 -227T90 -246Q87 -249 86 -250H74Q66 -250 63 -250T58 -247T55 -238Q56 -237 66 -225Q221 -64 221 250T66 725Q56 737 55 738Q55 746 60 749Z"
         id="path146"
         style="fill:#ffffff;stroke:#ffffff;stroke-opacity:1" />
    </g>
    <g
       transform="translate(4036,0)"
       id="g152"
       style="fill:#ffffff;stroke:#ffffff;stroke-opacity:1">
      <path
         stroke-width="10"
         transform="scale(1.73)"
         d="M94 250Q94 319 104 381T127 488T164 576T202 643T244 695T277 729T302 750H315H319Q333 750 333 741Q333 738 316 720T275 667T226 581T184 443T167 250T184 58T225 -81T274 -167T316 -220T333 -241Q333 -250 318 -250H315H302L274 -226Q180 -141 137 -14T94 250Z"
         id="path150"
         style="fill:#ffffff;stroke:#ffffff;stroke-opacity:1" />
    </g>
    <g
       transform="translate(4717,0)"
       id="g156"
       style="fill:#ffffff;stroke:#ffffff;stroke-opacity:1">
      <path
         stroke-width="10"
         transform="scale(1.73)"
         d="M26 385Q19 392 19 395Q19 399 22 411T27 425Q29 430 36 430T87 431H140L159 511Q162 522 166 540T173 566T179 586T187 603T197 615T211 624T229 626Q247 625 254 615T261 596Q261 589 252 549T232 470L222 433Q222 431 272 431H323Q330 424 330 420Q330 398 317 385H210L174 240Q135 80 135 68Q135 26 162 26Q197 26 230 60T283 144Q285 150 288 151T303 153H307Q322 153 322 145Q322 142 319 133Q314 117 301 95T267 48T216 6T155 -11Q125 -11 98 4T59 56Q57 64 57 83V101L92 241Q127 382 128 383Q128 385 77 385H26Z"
         id="path154"
         style="fill:#ffffff;stroke:#ffffff;stroke-opacity:1" />
    </g>
    <g
       transform="translate(5350,0)"
       id="g160"
       style="fill:#ffffff;stroke:#ffffff;stroke-opacity:1">
      <path
         stroke-width="10"
         transform="scale(1.73)"
         d="M60 749L64 750Q69 750 74 750H86L114 726Q208 641 251 514T294 250Q294 182 284 119T261 12T224 -76T186 -143T145 -194T113 -227T90 -246Q87 -249 86 -250H74Q66 -250 63 -250T58 -247T55 -238Q56 -237 66 -225Q221 -64 221 250T66 725Q56 737 55 738Q55 746 60 749Z"
         id="path158"
         style="fill:#ffffff;stroke:#ffffff;stroke-opacity:1" />
    </g>
    <g
       transform="translate(6513,0)"
       id="g164"
       style="fill:#ffffff;stroke:#ffffff;stroke-opacity:1">
      <path
         stroke-width="10"
         transform="scale(1.73)"
         d="M192 482H190Q187 483 185 484T181 488T177 493T175 501Q175 506 178 512Q184 523 278 687T375 853Q379 857 383 857Q385 857 387 858T390 859Q397 859 403 853Q405 851 499 687T600 512Q603 506 603 501Q603 488 587 482H192ZM548 523L389 798Q388 798 309 661T230 523T389 522T548 523ZM56 347Q56 360 70 367H708Q723 359 723 347Q723 336 709 328L390 327H72Q56 332 56 347ZM56 153Q56 168 72 173H709Q723 163 723 153Q723 140 708 133H70Q56 140 56 153Z"
         id="path162"
         style="fill:#ffffff;stroke:#ffffff;stroke-opacity:1" />
    </g>
    <g
       transform="translate(8348,0)"
       id="g180"
       style="fill:#ffffff;stroke:#ffffff;stroke-opacity:1">
      <path
         stroke-width="10"
         transform="scale(1.73)"
         d="M114 -798Q132 -824 165 -824H167Q195 -824 223 -764T275 -600T320 -391T362 -164Q365 -143 367 -133Q439 292 523 655T645 1127Q651 1145 655 1157T672 1201T699 1257T733 1306T777 1346T828 1360Q884 1360 912 1325T944 1245Q944 1220 932 1205T909 1186T887 1183Q866 1183 849 1198T832 1239Q832 1287 885 1296L882 1300Q879 1303 874 1307T866 1313Q851 1323 833 1323Q819 1323 807 1311T775 1255T736 1139T689 936T633 628Q574 293 510 -5T410 -437T355 -629Q278 -862 165 -862Q125 -862 92 -831T55 -746Q55 -711 74 -698T112 -685Q133 -685 150 -700T167 -741Q167 -789 114 -798Z"
         id="path166"
         style="fill:#ffffff;stroke:#ffffff;stroke-opacity:1" />
      <g
         transform="translate(1843,1900)"
         id="g170"
         style="fill:#ffffff;stroke:#ffffff;stroke-opacity:1">
        <path
           stroke-width="10"
           transform="scale(1.223)"
           d="M55 217Q55 305 111 373T254 442Q342 442 419 381Q457 350 493 303L507 284L514 294Q618 442 747 442Q833 442 888 374T944 214Q944 128 889 59T743 -11Q657 -11 580 50Q542 81 506 128L492 147L485 137Q381 -11 252 -11Q166 -11 111 57T55 217ZM907 217Q907 285 869 341T761 397Q740 397 720 392T682 378T648 359T619 335T594 310T574 285T559 263T548 246L543 238L574 198Q605 158 622 138T664 94T714 61T765 51Q827 51 867 100T907 217ZM92 214Q92 145 131 89T239 33Q357 33 456 193L425 233Q364 312 334 337Q285 380 233 380Q171 380 132 331T92 214Z"
           id="path168"
           style="fill:#ffffff;stroke:#ffffff;stroke-opacity:1" />
      </g>
      <g
         transform="translate(970,-1570)"
         id="g178"
         style="fill:#ffffff;stroke:#ffffff;stroke-opacity:1">
        <path
           stroke-width="10"
           transform="scale(1.223)"
           d="M84 237T84 250T98 270H679Q694 262 694 250T679 230H98Q84 237 84 250Z"
           id="path172"
           style="fill:#ffffff;stroke:#ffffff;stroke-opacity:1" />
        <g
           transform="translate(957,0)"
           id="g176"
           style="fill:#ffffff;stroke:#ffffff;stroke-opacity:1">
          <path
             stroke-width="10"
             transform="scale(1.223)"
             d="M55 217Q55 305 111 373T254 442Q342 442 419 381Q457 350 493 303L507 284L514 294Q618 442 747 442Q833 442 888 374T944 214Q944 128 889 59T743 -11Q657 -11 580 50Q542 81 506 128L492 147L485 137Q381 -11 252 -11Q166 -11 111 57T55 217ZM907 217Q907 285 869 341T761 397Q740 397 720 392T682 378T648 359T619 335T594 310T574 285T559 263T548 246L543 238L574 198Q605 158 622 138T664 94T714 61T765 51Q827 51 867 100T907 217ZM92 214Q92 145 131 89T239 33Q357 33 456 193L425 233Q364 312 334 337Q285 380 233 380Q171 380 132 331T92 214Z"
             id="path174"
             style="fill:#ffffff;stroke:#ffffff;stroke-opacity:1" />
        </g>
      </g>
    </g>
    <g
       transform="translate(11967,0)"
       id="g184"
       style="fill:#ffffff;stroke:#ffffff;stroke-opacity:1">
      <path
         stroke-width="10"
         transform="scale(1.73)"
         d="M118 -162Q120 -162 124 -164T135 -167T147 -168Q160 -168 171 -155T187 -126Q197 -99 221 27T267 267T289 382V385H242Q195 385 192 387Q188 390 188 397L195 425Q197 430 203 430T250 431Q298 431 298 432Q298 434 307 482T319 540Q356 705 465 705Q502 703 526 683T550 630Q550 594 529 578T487 561Q443 561 443 603Q443 622 454 636T478 657L487 662Q471 668 457 668Q445 668 434 658T419 630Q412 601 403 552T387 469T380 433Q380 431 435 431Q480 431 487 430T498 424Q499 420 496 407T491 391Q489 386 482 386T428 385H372L349 263Q301 15 282 -47Q255 -132 212 -173Q175 -205 139 -205Q107 -205 81 -186T55 -132Q55 -95 76 -78T118 -61Q162 -61 162 -103Q162 -122 151 -136T127 -157L118 -162Z"
         id="path182"
         style="fill:#ffffff;stroke:#ffffff;stroke-opacity:1" />
    </g>
    <g
       transform="translate(12927,0)"
       id="g188"
       style="fill:#ffffff;stroke:#ffffff;stroke-opacity:1">
      <path
         stroke-width="10"
         transform="scale(1.73)"
         d="M94 250Q94 319 104 381T127 488T164 576T202 643T244 695T277 729T302 750H315H319Q333 750 333 741Q333 738 316 720T275 667T226 581T184 443T167 250T184 58T225 -81T274 -167T316 -220T333 -241Q333 -250 318 -250H315H302L274 -226Q180 -141 137 -14T94 250Z"
         id="path186"
         style="fill:#ffffff;stroke:#ffffff;stroke-opacity:1" />
    </g>
    <g
       transform="translate(13609,0)"
       id="g192"
       style="fill:#ffffff;stroke:#ffffff;stroke-opacity:1">
      <path
         stroke-width="10"
         transform="scale(1.73)"
         d="M39 284Q18 284 18 294Q18 301 45 338T99 398Q134 425 164 429Q170 431 332 431Q492 431 497 429Q517 424 517 402Q517 388 508 376T485 360Q479 358 389 358T299 356Q298 355 283 274T251 109T233 20Q228 5 215 -4T186 -13Q153 -13 153 20V30L203 192Q214 228 227 272T248 336L254 357Q254 358 208 358Q206 358 197 358T183 359Q105 359 61 295Q56 287 53 286T39 284Z"
         id="path190"
         style="fill:#ffffff;stroke:#ffffff;stroke-opacity:1" />
    </g>
    <g
       transform="translate(14512,0)"
       id="g196"
       style="fill:#ffffff;stroke:#ffffff;stroke-opacity:1">
      <path
         stroke-width="10"
         transform="scale(1.73)"
         d="M60 749L64 750Q69 750 74 750H86L114 726Q208 641 251 514T294 250Q294 182 284 119T261 12T224 -76T186 -143T145 -194T113 -227T90 -246Q87 -249 86 -250H74Q66 -250 63 -250T58 -247T55 -238Q56 -237 66 -225Q221 -64 221 250T66 725Q56 737 55 738Q55 746 60 749Z"
         id="path194"
         style="fill:#ffffff;stroke:#ffffff;stroke-opacity:1" />
    </g>
    <g
       transform="translate(15193,0)"
       id="g200"
       style="fill:#ffffff;stroke:#ffffff;stroke-opacity:1">
      <path
         stroke-width="10"
         transform="scale(1.73)"
         d="M311 43Q296 30 267 15T206 0Q143 0 105 45T66 160Q66 265 143 353T314 442Q361 442 401 394L404 398Q406 401 409 404T418 412T431 419T447 422Q461 422 470 413T480 394Q480 379 423 152T363 -80Q345 -134 286 -169T151 -205Q10 -205 10 -137Q10 -111 28 -91T74 -71Q89 -71 102 -80T116 -111Q116 -121 114 -130T107 -144T99 -154T92 -162L90 -164H91Q101 -167 151 -167Q189 -167 211 -155Q234 -144 254 -122T282 -75Q288 -56 298 -13Q311 35 311 43ZM384 328L380 339Q377 350 375 354T369 368T359 382T346 393T328 402T306 405Q262 405 221 352Q191 313 171 233T151 117Q151 38 213 38Q269 38 323 108L331 118L384 328Z"
         id="path198"
         style="fill:#ffffff;stroke:#ffffff;stroke-opacity:1" />
    </g>
    <g
       transform="translate(16032,0)"
       id="g204"
       style="fill:#ffffff;stroke:#ffffff;stroke-opacity:1">
      <path
         stroke-width="10"
         transform="scale(1.73)"
         d="M94 250Q94 319 104 381T127 488T164 576T202 643T244 695T277 729T302 750H315H319Q333 750 333 741Q333 738 316 720T275 667T226 581T184 443T167 250T184 58T225 -81T274 -167T316 -220T333 -241Q333 -250 318 -250H315H302L274 -226Q180 -141 137 -14T94 250Z"
         id="path202"
         style="fill:#ffffff;stroke:#ffffff;stroke-opacity:1" />
    </g>
    <g
       transform="translate(16714,0)"
       id="g208"
       style="fill:#ffffff;stroke:#ffffff;stroke-opacity:1">
      <path
         stroke-width="10"
         transform="scale(1.73)"
         d="M26 385Q19 392 19 395Q19 399 22 411T27 425Q29 430 36 430T87 431H140L159 511Q162 522 166 540T173 566T179 586T187 603T197 615T211 624T229 626Q247 625 254 615T261 596Q261 589 252 549T232 470L222 433Q222 431 272 431H323Q330 424 330 420Q330 398 317 385H210L174 240Q135 80 135 68Q135 26 162 26Q197 26 230 60T283 144Q285 150 288 151T303 153H307Q322 153 322 145Q322 142 319 133Q314 117 301 95T267 48T216 6T155 -11Q125 -11 98 4T59 56Q57 64 57 83V101L92 241Q127 382 128 383Q128 385 77 385H26Z"
         id="path206"
         style="fill:#ffffff;stroke:#ffffff;stroke-opacity:1" />
    </g>
    <g
       transform="translate(17732,0)"
       id="g212"
       style="fill:#ffffff;stroke:#ffffff;stroke-opacity:1">
      <path
         stroke-width="10"
         transform="scale(1.73)"
         d="M84 237T84 250T98 270H679Q694 262 694 250T679 230H98Q84 237 84 250Z"
         id="path210"
         style="fill:#ffffff;stroke:#ffffff;stroke-opacity:1" />
    </g>
    <g
       transform="translate(19471,0)"
       id="g216"
       style="fill:#ffffff;stroke:#ffffff;stroke-opacity:1">
      <path
         stroke-width="10"
         transform="scale(1.73)"
         d="M39 284Q18 284 18 294Q18 301 45 338T99 398Q134 425 164 429Q170 431 332 431Q492 431 497 429Q517 424 517 402Q517 388 508 376T485 360Q479 358 389 358T299 356Q298 355 283 274T251 109T233 20Q228 5 215 -4T186 -13Q153 -13 153 20V30L203 192Q214 228 227 272T248 336L254 357Q254 358 208 358Q206 358 197 358T183 359Q105 359 61 295Q56 287 53 286T39 284Z"
         id="path214"
         style="fill:#ffffff;stroke:#ffffff;stroke-opacity:1" />
    </g>
    <g
       transform="translate(20374,0)"
       id="g220"
       style="fill:#ffffff;stroke:#ffffff;stroke-opacity:1">
      <path
         stroke-width="10"
         transform="scale(1.73)"
         d="M60 749L64 750Q69 750 74 750H86L114 726Q208 641 251 514T294 250Q294 182 284 119T261 12T224 -76T186 -143T145 -194T113 -227T90 -246Q87 -249 86 -250H74Q66 -250 63 -250T58 -247T55 -238Q56 -237 66 -225Q221 -64 221 250T66 725Q56 737 55 738Q55 746 60 749Z"
         id="path218"
         style="fill:#ffffff;stroke:#ffffff;stroke-opacity:1" />
    </g>
    <g
       transform="translate(21055,0)"
       id="g228"
       style="fill:#ffffff;stroke:#ffffff;stroke-opacity:1">
      <path
         stroke-width="10"
         transform="scale(1.73)"
         d="M39 284Q18 284 18 294Q18 301 45 338T99 398Q134 425 164 429Q170 431 332 431Q492 431 497 429Q517 424 517 402Q517 388 508 376T485 360Q479 358 389 358T299 356Q298 355 283 274T251 109T233 20Q228 5 215 -4T186 -13Q153 -13 153 20V30L203 192Q214 228 227 272T248 336L254 357Q254 358 208 358Q206 358 197 358T183 359Q105 359 61 295Q56 287 53 286T39 284Z"
         id="path222"
         style="fill:#ffffff;stroke:#ffffff;stroke-opacity:1" />
      <g
         transform="translate(944,714)"
         id="g226"
         style="fill:#ffffff;stroke:#ffffff;stroke-opacity:1">
        <path
           stroke-width="10"
           transform="scale(1.223)"
           d="M79 43Q73 43 52 49T30 61Q30 68 85 293T146 528Q161 560 198 560Q218 560 240 545T262 501Q262 496 260 486Q259 479 173 263T84 45T79 43Z"
           id="path224"
           style="fill:#ffffff;stroke:#ffffff;stroke-opacity:1" />
      </g>
    </g>
  </g>
</svg>
